<mxfile host="app.diagrams.net" modified="2024-02-06T08:27:52.629Z" agent="Mozilla/5.0 (Macintosh; Intel Mac OS X 10_15_7) AppleWebKit/537.36 (KHTML, like Gecko) Chrome/121.0.0.0 Safari/537.36 Edg/121.0.0.0" version="23.0.2" etag="u4wjipBXP_S9AcTw2rCn" type="github">
  <diagram name="第 1 页" id="ZVVCxVtOo5jQRMP403fl">
    <mxGraphModel>
      <root>
        <mxCell id="0" />
        <mxCell id="1" parent="0" />
      </root>
    </mxGraphModel>
  </diagram>
</mxfile>
